<svg width="1200" height="760" viewBox="0 0 1200 760" fill="none" xmlns="http://www.w3.org/2000/svg">
  <defs>
    <linearGradient id="bg" x1="120" y1="80" x2="1080" y2="680" gradientUnits="userSpaceOnUse">
      <stop stop-color="#08111F"/>
      <stop offset="1" stop-color="#11365C"/>
    </linearGradient>
    <linearGradient id="line" x1="0" y1="0" x2="1" y2="1">
      <stop stop-color="#46C2FF"/>
      <stop offset="1" stop-color="#48E5C2"/>
    </linearGradient>
  </defs>
  <rect width="1200" height="760" rx="32" fill="url(#bg)"/>
  <rect x="66" y="60" width="1068" height="640" rx="28" fill="#0B172A" stroke="#24476E"/>
  <rect x="98" y="96" width="1004" height="54" rx="18" fill="#0A1627" stroke="#1D385A"/>
  <circle cx="130" cy="123" r="7" fill="#FF7B72"/>
  <circle cx="158" cy="123" r="7" fill="#FFD978"/>
  <circle cx="186" cy="123" r="7" fill="#48E5C2"/>
  <text x="224" y="131" fill="#DCEBFF" font-family="Segoe UI, Arial, sans-serif" font-size="21" font-weight="600">Chat Workspace</text>
  <rect x="98" y="174" width="220" height="462" rx="24" fill="#0C1E34" stroke="#1D385A"/>
  <rect x="124" y="206" width="116" height="22" rx="11" fill="url(#line)" opacity="0.9"/>
  <rect x="124" y="258" width="168" height="56" rx="18" fill="#112845" stroke="#214268"/>
  <rect x="124" y="330" width="168" height="56" rx="18" fill="#112845" stroke="#214268"/>
  <rect x="124" y="402" width="168" height="56" rx="18" fill="#112845" stroke="#214268"/>
  <rect x="350" y="174" width="490" height="462" rx="24" fill="#0D1F36" stroke="#1D385A"/>
  <text x="386" y="214" fill="#DCEBFF" font-family="Segoe UI, Arial, sans-serif" font-size="22" font-weight="600">Streaming response</text>
  <rect x="384" y="242" width="332" height="92" rx="20" fill="#12304E" stroke="#2A5B8B"/>
  <text x="418" y="294" fill="#FFFFFF" font-family="Segoe UI, Arial, sans-serif" font-size="22" font-weight="700">User asks a real task</text>
  <rect x="468" y="362" width="328" height="150" rx="24" fill="#10243E" stroke="#214268"/>
  <text x="500" y="404" fill="#FFFFFF" font-family="Segoe UI, Arial, sans-serif" font-size="22" font-weight="700">AI streams output</text>
  <rect x="500" y="430" width="226" height="10" rx="5" fill="#9BC4E7"/>
  <rect x="500" y="454" width="188" height="10" rx="5" fill="#6E8AAC"/>
  <rect x="500" y="478" width="214" height="10" rx="5" fill="#9BC4E7"/>
  <path d="M500 544H716" stroke="url(#line)" stroke-width="7" stroke-linecap="round" stroke-dasharray="16 12"/>
  <rect x="866" y="174" width="236" height="462" rx="24" fill="#0D1F36" stroke="#1D385A"/>
  <text x="900" y="214" fill="#DCEBFF" font-family="Segoe UI, Arial, sans-serif" font-size="22" font-weight="600">Details</text>
  <rect x="900" y="242" width="168" height="84" rx="20" fill="#10243E" stroke="#214268"/>
  <text x="930" y="288" fill="#FFFFFF" font-family="Segoe UI, Arial, sans-serif" font-size="20" font-weight="700">&lt;think&gt;</text>
  <rect x="900" y="350" width="168" height="84" rx="20" fill="#10243E" stroke="#214268"/>
  <text x="935" y="396" fill="#FFFFFF" font-family="Segoe UI, Arial, sans-serif" font-size="20" font-weight="700">Markdown</text>
  <rect x="900" y="458" width="168" height="84" rx="20" fill="#10243E" stroke="#214268"/>
  <text x="949" y="504" fill="#FFFFFF" font-family="Segoe UI, Arial, sans-serif" font-size="20" font-weight="700">Tokens</text>
  <rect x="98" y="656" width="1004" height="18" rx="9" fill="#10243E" stroke="#214268"/>
  <rect x="714" y="656" width="264" height="18" rx="9" fill="url(#line)"/>
</svg>
